<svg width="243" height="243" viewBox="0 0 243 243" fill="none" xmlns="http://www.w3.org/2000/svg">
<g filter="url(#filter0_d_103_1210)">
<rect x="60" y="30" width="123" height="123" rx="35" fill="white"/>
</g>
<path d="M150.6 94.7V120.6C150.6 122.563 149.82 124.445 148.433 125.833C147.045 127.22 145.163 128 143.2 128C141.237 128 139.355 127.22 137.967 125.833C136.58 124.445 135.8 122.563 135.8 120.6V102.1H128.4V65.1C128.4 62.1561 129.569 59.3328 131.651 57.2511C133.733 55.1695 136.556 54 139.5 54H150.6V94.7ZM98.8 91C96.8374 91 94.9552 90.2204 93.5674 88.8326C92.1796 87.4448 91.4 85.5626 91.4 83.6V57.7C91.4 56.7187 91.7898 55.7776 92.4837 55.0837C93.1776 54.3898 94.1187 54 95.1 54C96.0813 54 97.0224 54.3898 97.7163 55.0837C98.4102 55.7776 98.8 56.7187 98.8 57.7V72.5H102.5V57.7C102.5 56.7187 102.89 55.7776 103.584 55.0837C104.278 54.3898 105.219 54 106.2 54C107.181 54 108.122 54.3898 108.816 55.0837C109.51 55.7776 109.9 56.7187 109.9 57.7V72.5H113.6V57.7C113.6 56.7187 113.99 55.7776 114.684 55.0837C115.378 54.3898 116.319 54 117.3 54C118.281 54 119.222 54.3898 119.916 55.0837C120.61 55.7776 121 56.7187 121 57.7V83.6C121 85.5626 120.22 87.4448 118.833 88.8326C117.445 90.2204 115.563 91 113.6 91V120.6C113.6 122.563 112.82 124.445 111.433 125.833C110.045 127.22 108.163 128 106.2 128C104.237 128 102.355 127.22 100.967 125.833C99.5796 124.445 98.8 122.563 98.8 120.6V91Z" fill="#FF4201"/>
<defs>
<filter id="filter0_d_103_1210" x="0" y="0" width="243" height="243" filterUnits="userSpaceOnUse" color-interpolation-filters="sRGB">
<feFlood flood-opacity="0" result="BackgroundImageFix"/>
<feColorMatrix in="SourceAlpha" type="matrix" values="0 0 0 0 0 0 0 0 0 0 0 0 0 0 0 0 0 0 127 0" result="hardAlpha"/>
<feOffset dy="30"/>
<feGaussianBlur stdDeviation="30"/>
<feComposite in2="hardAlpha" operator="out"/>
<feColorMatrix type="matrix" values="0 0 0 0 0.3 0 0 0 0 0.0776471 0 0 0 0 0 0 0 0 0.26 0"/>
<feBlend mode="normal" in2="BackgroundImageFix" result="effect1_dropShadow_103_1210"/>
<feBlend mode="normal" in="SourceGraphic" in2="effect1_dropShadow_103_1210" result="shape"/>
</filter>
</defs>
</svg>
